<svg version="1.1" id="Layer_1" xmlns="http://www.w3.org/2000/svg" x="0" y="0" viewBox="0 0 500 500" style="enable-background:new 0 0 500 500" xml:space="preserve"><style>.st2{fill:#71ccff}.st3{fill:#231f20}.st4{fill:#f9f9f9}.st7{fill:#f9b630}</style><circle cx="250" cy="250" r="143.9" style="fill:#c9c9c9"/><path class="st3" d="M250 398.9c-82.1 0-148.9-66.8-148.9-148.9S167.9 101.1 250 101.1 398.9 167.9 398.9 250 332.1 398.9 250 398.9zm0-287.8c-76.6 0-138.9 62.3-138.9 138.9S173.4 388.9 250 388.9 388.9 326.6 388.9 250 326.6 111.1 250 111.1z"/><path class="st4" d="M204.4 139.8c-2 0-3.9-1.2-4.6-3.2-1-2.6.2-5.5 2.8-6.5 1.2-.5 2.5-1 3.8-1.4 2.6-.9 5.5.4 6.4 3 .9 2.6-.4 5.5-3 6.4-1.2.4-2.3.9-3.5 1.3-.7.3-1.3.4-1.9.4zM141.1 314c-1.8 0-3.5-.9-4.4-2.6-10.2-18.7-15.6-40-15.6-61.4 0-22.6 6-44.9 17.3-64.4 10.9-18.9 26.6-34.9 45.4-46.1 2.4-1.4 5.4-.7 6.9 1.7s.7 5.4-1.7 6.9c-35.6 21.4-57.8 60.5-57.8 101.9 0 19.8 5 39.3 14.4 56.6 1.3 2.4.4 5.5-2 6.8-.9.4-1.7.6-2.5.6z"/><path d="M285.4 250c28.2-39.6 87.1-122.5 87.1-122.5L250 214.6c-39.6-28.2-122.5-87.1-122.5-87.1L214.6 250c-28.2 39.6-87.1 122.5-87.1 122.5L250 285.4c39.6 28.2 122.5 87.1 122.5 87.1L285.4 250z" style="fill:#fff"/><path class="st3" d="M372.5 377.5c-1 0-2-.3-2.9-.9L250 291.5l-119.6 85.1c-2 1.4-4.7 1.2-6.4-.5-1.7-1.7-2-4.4-.5-6.4l85-119.7-85.1-119.6c-1.4-2-1.2-4.7.5-6.4 1.7-1.7 4.4-2 6.4-.5l119.7 85 119.6-85.1c2-1.4 4.7-1.2 6.4.5 1.7 1.7 2 4.4.5 6.4l-85 119.7 85.1 119.6c1.4 2 1.2 4.7-.5 6.4-1 1-2.3 1.5-3.6 1.5zM250 280.4c1 0 2 .3 2.9.9l98.3 70-70-98.3c-1.2-1.7-1.2-4.1 0-5.8l70-98.3-98.3 70c-1.7 1.2-4.1 1.2-5.8 0l-98.3-70 70 98.3c1.2 1.7 1.2 4.1 0 5.8l-70 98.3 98.3-70c.9-.6 1.9-.9 2.9-.9z"/><path class="st2" d="M214.6 214.6 250 250V5z"/><path class="st3" d="M250 255c-1.3 0-2.6-.5-3.5-1.5l-35.4-35.4c-1.1-1.1-1.7-2.8-1.4-4.4L245.1 4.2c.4-2.6 2.7-4.4 5.3-4.2 2.6.2 4.6 2.4 4.6 5v245c0 2-1.2 3.8-3.1 4.6-.6.3-1.3.4-1.9.4zm-30-42.1 25 25V64.7l-25 148.2z"/><path class="st7" d="m250 250 35.4-35.4L250 5z"/><path class="st3" d="M267.1 111.1c-2.4 0-4.5-1.7-4.9-4.2l-.8-4.8c-.5-2.7 1.4-5.3 4.1-5.8 2.7-.5 5.3 1.4 5.8 4.1l.8 4.8c.5 2.7-1.4 5.3-4.1 5.8-.4.1-.7.1-.9.1z"/><path class="st3" d="M250 255c-.6 0-1.3-.1-1.9-.4-1.9-.8-3.1-2.6-3.1-4.6V5c0-2.6 2-4.8 4.6-5 2.6-.2 4.9 1.6 5.3 4.2L268 81.9c.5 2.7-1.4 5.3-4.1 5.8-2.7.5-5.3-1.4-5.8-4.1L255 64.7v173.2l25-25-14.6-86.7c-.5-2.7 1.4-5.3 4.1-5.8 2.7-.5 5.3 1.4 5.8 4.1l15.1 89.3c.3 1.6-.3 3.2-1.4 4.4l-35.4 35.4c-1 .9-2.3 1.4-3.6 1.4z"/><path class="st7" d="m250 250-35.4 35.4L250 495z"/><path class="st3" d="M228.2 371c-2.4 0-4.5-1.7-4.9-4.2l-.6-3.5c-.5-2.7 1.4-5.3 4.1-5.8 2.7-.5 5.3 1.4 5.8 4.1l.6 3.5c.5 2.7-1.4 5.3-4.1 5.8-.3.1-.6.1-.9.1z"/><path class="st3" d="M250 500c-2.4 0-4.5-1.7-4.9-4.2L226.9 388c-.5-2.7 1.4-5.3 4.1-5.8 2.7-.5 5.3 1.4 5.8 4.1l8.3 48.9V262.1l-25 25 9.2 54.4c.5 2.7-1.4 5.3-4.1 5.8-2.7.5-5.3-1.4-5.8-4.1l-9.6-57c-.3-1.6.3-3.2 1.4-4.4l35.4-35.4c1.4-1.4 3.6-1.9 5.4-1.1 1.9.8 3.1 2.6 3.1 4.6v245c0 2.6-2 4.8-4.6 5-.2.1-.4.1-.5.1z"/><path class="st2" d="m250 250 35.4 35.4L250 495z"/><path class="st3" d="M250 500h-.4c-2.6-.2-4.6-2.4-4.6-5V250c0-2 1.2-3.8 3.1-4.6 1.9-.8 4-.3 5.4 1.1l35.4 35.4c1.1 1.1 1.7 2.8 1.4 4.4l-35.4 209.6c-.4 2.4-2.5 4.1-4.9 4.1zm5-237.9v173.2l25-148.2-25-25z"/><path class="st2" d="M285.4 214.6 495 250H250z"/><path class="st7" d="M285.4 285.4 250 250h245z"/><path class="st3" d="M495 255H250c-2 0-3.8-1.2-4.6-3.1-.8-1.9-.3-4 1.1-5.4l35.4-35.4c1.1-1.1 2.8-1.7 4.4-1.4l209.6 35.4c2.6.4 4.4 2.8 4.2 5.3-.3 2.6-2.5 4.6-5.1 4.6zm-232.9-10h173.2l-148.2-25-25 25z"/><path class="st3" d="M285.4 290.4c-1.3 0-2.6-.5-3.5-1.5l-35.4-35.4c-1.4-1.4-1.9-3.6-1.1-5.4.8-1.9 2.6-3.1 4.6-3.1h245c2.6 0 4.8 2 5 4.6.2 2.6-1.6 4.9-4.2 5.3L394.2 272c-2.7.5-5.3-1.4-5.8-4.1-.5-2.7 1.4-5.3 4.1-5.8l42.7-7.2H262.1l25 25 55-9.3c2.7-.5 5.3 1.4 5.8 4.1.5 2.7-1.4 5.3-4.1 5.8l-57.6 9.7c-.3.1-.6.2-.8.2z"/><path class="st3" d="M365 276.9c-2.4 0-4.5-1.7-4.9-4.2-.5-2.7 1.4-5.3 4.1-5.8l4-.7c2.7-.5 5.3 1.4 5.8 4.1.5 2.7-1.4 5.3-4.1 5.8l-4 .7c-.3.1-.6.1-.9.1z"/><path class="st7" d="M214.6 214.6 250 250H5z"/><path class="st3" d="M250 255H5c-2.6 0-4.8-2-5-4.6-.2-2.6 1.6-4.9 4.2-5.3l94.3-15.9c2.7-.5 5.3 1.4 5.8 4.1.5 2.7-1.4 5.3-4.1 5.8l-35.4 6H238l-25-25-70 11.8c-2.7.5-5.3-1.4-5.8-4.1-.5-2.7 1.4-5.3 4.1-5.8l72.5-12.2c1.6-.3 3.2.3 4.4 1.4l35.4 35.4c1.4 1.4 1.9 3.6 1.1 5.4-.9 1.8-2.7 3-4.7 3z"/><path class="st3" d="M115.8 236.3c-2.4 0-4.5-1.7-4.9-4.2-.5-2.7 1.4-5.3 4.1-5.8l4.8-.8c2.7-.5 5.3 1.4 5.8 4.1.5 2.7-1.4 5.3-4.1 5.8l-4.8.8c-.3.1-.6.1-.9.1z"/><path class="st2" d="m250 250-35.4 35.4L5 250z"/><path class="st3" d="M214.6 290.4c-.3 0-.6 0-.8-.1L4.2 254.9c-2.6-.4-4.4-2.8-4.2-5.3.2-2.6 2.4-4.6 5-4.6h245c2 0 3.8 1.2 4.6 3.1.8 1.9.3 4-1.1 5.4l-35.4 35.4c-.9.9-2.1 1.5-3.5 1.5zM64.7 255l148.2 25 25-25H64.7z"/></svg>
